<svg version="1.2" xmlns="http://www.w3.org/2000/svg" viewBox="0 0 2394 278" width="1750" height="272">
	<title>Piston Bleu_Logo2 (2)-svg</title>
	<style>
		.s0 { fill: #ffffff } 
		.s1 { fill: #0066ff } 
	</style>
	<g id="Layer">
		<path id="Layer" fill-rule="evenodd" class="s0" d="m607.5 69.2l-5.6 20.2-0.1 0.1c-11.8 41.2-33.3 66.4-56.5 66.4h-80.7l-0.1-0.1h-31.8l-8.5 30.3h0.1l-10.1 36.1h-52.7l-5.9-7 1.7-1.1c0 0 3.9-2.6 9.2-9.7l38-134.8-3.4-16.7h201.9c1.9 0 3.6 2.1 4.6 5.5 0.9 3.4 0.9 7.4-0.1 10.8zm-59.8 20.2h-96.3l-1.9 6.9v0.1l-2.6 9.1-3.9 13.9 80.7 0.2c2.9-0.5 8.3-2.1 14-8.7 6.2-7.2 9.6-16.6 11.1-21.5q-0.5 0-1.1 0z"/>
		<path id="Layer" class="s0" d="m676 52.9l-29 102.7-18.8 66.7-52.5-0.1-5.9-7 1.7-1.1c0 0 4-2.9 9.2-9.7l38-134.8-3.4-16.6h60.7z"/>
		<path id="Layer" class="s0" d="m861.5 161.8l-17.3 60.4h-202.2l30.3-52c4.4 10.1 10.9 15.9 17.7 15.9h108.3c2.2 0 4.2-2.3 5.3-6.1l1.4-4.6-126.9-48.2c-0.4-0.2-3-1.4-4.5-6.4-1.5-5.2-0.6-10.1-0.5-10.9l0.4-1.6 4.6-15.9 6.3-22.6v-0.1l-3.4-16.7h8.2v-0.1l52.5 0.1 100.8-0.1h50.2l-42.3 52.3-0.3-0.7c-4.4-10.1-10.9-15.9-17.7-15.9h-96.9c-2.2 0-4.2 2.4-5.3 6.1l-1.2 4.4 113.3 38.8 14.5 5c4.5 1.6 6.9 11.2 4.7 18.9z"/>
		<path id="Layer" class="s0" d="m1103.9 52.9l-10.1 36h-70.4l-0.2 0.5-1.9 6.9-0.1 0.1-1.6 5.7-0.9 3.4-32.9 116.8h-52.5l-5.9-7.1 1.6-1.1c0 0 4.4-3.3 9.2-9.1l0.1-0.6 32.5-115.5h-70.2l-7.2-36h209.8q0.5 0 0.7 0z"/>
		<path id="Layer" fill-rule="evenodd" class="s0" d="m1312.5 53h-0.1v-0.1zm-34.4 122c-8.2 29.2-24 47.3-41.2 47.3h-164.3l-6.4-15.1 14.5-51.5 10.1-36 5.4-19.2c8.2-29.3 24-47.5 41.2-47.5h175.1zm-28.3-85.8h-97.8l-27.4 97.1h97.8l8.6-30.5 10.2-36.1 8.6-30.5z"/>
		<path id="Layer" class="s0" d="m1477.8 52.9h52.6l-47.8 169.3h-52.5l-66.3-109.6-31 109.6h-52.5l-5.9-7 1.7-1.1c0 0 3.9-2.5 9-9.2 0.1-0.2 0.2-0.4 0.2-0.4l38-134.8-3.4-16.8h60.4l0.2 0.4v0.1l66.3 109.6 31-110z"/>
	</g>
	<path id="Layer" class="s1" d="m140.5 6.1c7.5-3.1 32.7 0 32.7 0 9.5 0 18.5 3.7 25.2 10.4l58.2 58.3c6.7 6.6 10.5 15.7 10.5 25.2 0 0 3.1 25.4 0 33.1-0.1 0-0.2 0.1-0.2 0.1-7.6 3.2-32.8 0-32.8 0-9.4 0-18.5-3.7-25.2-10.4l-58.2-58.2c-6.7-6.7-10.4-15.8-10.4-25.2 0 0-3.2-25.5 0-33.1 0-0.1 0.1-0.2 0.2-0.2z"/>
	<path id="Layer" class="s1" d="m1.8 144.8c7.5-3.2 32.7 0 32.7 0 9.5 0 18.5 3.7 25.2 10.4l58.2 58.2c6.7 6.7 10.5 15.8 10.5 25.2 0 0 3.1 25.5 0 33.1 0 0.1-0.1 0.2-0.2 0.2-7.6 3.1-24.6 0-32.7 0-9.5 0-18.6-3.7-25.2-10.4l-58.3-58.2c-6.6-6.7-10.4-15.8-10.4-25.2 0 0-3.2-25.5 0-33.1 0-0.1 0.1-0.2 0.2-0.2z"/>
	<path id="Layer" class="s1" d="m267.2 145.2c3.2 7.5 0 32.7 0 32.7 0 9.4-3.7 18.5-10.4 25.2l-58.2 58.2c-6.7 6.7-15.8 10.4-25.2 10.4 0 0-25.5 3.2-33.1 0-0.1 0-0.2-0.1-0.2-0.2-3.1-7.5 0-32.7 0-32.7 0-9.4 3.7-18.5 10.4-25.2l58.3-58.2c6.6-6.7 15.7-10.4 25.2-10.4 0 0 25.4-3.2 33 0 0.1 0 0.2 0.1 0.2 0.2z"/>
	<path id="Layer" class="s1" d="m128.5 6.5c3.2 7.5 0 32.7 0 32.7 0 9.4-3.7 18.5-10.4 25.2l-58.2 58.2c-6.7 6.7-15.8 10.4-25.2 10.4 0 0-25.5 3.2-33.1 0-0.1 0-0.2-0.1-0.2-0.1-3.1-7.6 0-32.8 0-32.8 0-9.4 3.8-18.5 10.5-25.2l58.2-58.2c6.7-6.7 15.7-10.4 25.2-10.4 0 0 25.4-3.2 33.1 0 0 0 0.1 0.1 0.1 0.2z"/>
	<g id="Layer">
		<path id="Layer" fill-rule="evenodd" class="s0" d="m1750 72.2l-15.9 58-15.4 15.2 7.3 13.4-4.6 16c-9 31.1-25.9 50.4-44.3 50.4h-173.2l-5.9-7 1.7-1.1c0 0 4.1-2.9 9.2-9.5l4.9-17.4 33.1-117.6-3.4-16.7h201.9c1.9 0 3.6 2.1 4.6 5.5 0.9 3.4 0.9 7.4 0 10.8zm-59 20.7c-0.1-0.6-0.4-1-0.8-1h-96.2l-2.9 10.1-1.8 6.5-2.4 8.6-15.7 55.7-4.6 16.3h97.9l8.6-30.5h-88.3l19.6-36.1h78.9l4.5-16 3.2-11.7c0.2-0.6 0.2-1.3 0-1.9z"/>
		<path id="Layer" class="s0" d="m1932.4 189.1c-9.5 22.7-23.9 36.2-39.3 36.2h-173.2l-5.8-7 1.6-1.1c0 0 3.9-2.7 9.3-9.7l37.9-134.8-3.3-16.7h60.6l-10.3 36.4-2 6.9v0.1l-2.6 9.1-3.9 13.9-10.2 36.4-8.6 30.3c0 0 149.8 0 149.8 0z"/>
		<path id="Layer" class="s0" d="m1993.3 189.1h152l-19.6 36.2h-195.1l-5.8-7.1 1.6-1.1c0 0 3.9-2.6 9.3-9.7l16.6-59 21.2-75.7-3.3-16.8h61c7.3 0 15 0.1 23 0.1v-0.1h51.5l75.7-0.1-42.4 52.4-0.4-0.7c-4.4-10.1-10.9-15.6-17.7-15.6h-100.1l-5.1 17.9-3.6 12.8c3.2 0 4.9-0.1 13.5 0 8.5 0 16.2-0.1 23.9 0 28.1 0.1 51-0.1 53.1 0l-19.6 36h-81z"/>
		<path id="Layer" class="s0" d="m2394.4 55.9l-34.4 122c-8.3 29.2-24.1 47.3-41.2 47.3h-164.4l-6.4-15 14.5-51.6 5.2-18.3 18.9-67.6h-0.1l-3.3-16.8h60.9l-10.2 36.1-27.5 97.2h97.9l2-7.1 6.6-23.5 10.1-36 8.6-30.6 10.2-36.1h52.6z"/>
	</g>
</svg>